<svg width="48" height="40" viewBox="0 0 48 40" fill="none" xmlns="http://www.w3.org/2000/svg">
<path d="M48 13.2406C47.1964 14.1328 46.2857 14.9169 45.3214 15.5929C40.8482 18.6481 36.3482 21.7304 31.9821 24.9208C29.7321 26.5971 26.9464 28.6521 24.0268 28.6521H24H23.9732C21.0536 28.6521 18.2679 26.5971 16.0179 24.9208C11.6518 21.7033 7.1518 18.6481 2.7054 15.5929C1.7143 14.9169 0.80357 14.1328 0 13.2406V34.7085C0 37.0877 1.9286 39.0345 4.2857 39.0345H43.7143C46.0714 39.0345 48 37.0877 48 34.7085V13.2406ZM48 5.29152C48 2.91225 46.0446 0.965515 43.7143 0.965515H4.2857C1.4196 0.965515 0 3.23667 0 5.88636C0 8.34678 2.7054 11.402 4.6071 12.6998C8.7589 15.6198 12.9643 18.5399 17.1161 21.487C18.8571 22.7037 21.8036 25.1912 23.9732 25.1912H24H24.0268C26.1964 25.1912 29.1429 22.7037 30.8839 21.487C35.0357 18.5399 39.2411 15.6198 43.4196 12.6998C45.7768 11.0506 48 8.31973 48 5.29152Z" fill="white"/>
</svg>
