<svg viewBox="0 0 1024 1024" fill="none" xmlns="http://www.w3.org/2000/svg">
<path d="M1024 512C1024 794.77 794.77 1024 512 1024C229.23 1024 0 794.77 0 512C0 229.23 229.23 0 512 0C794.77 0 1024 229.23 1024 512Z" fill="white"/>
<path d="M224.992 809.104C224.992 801.935 230.803 796.124 237.972 796.124H788.913C796.081 796.124 801.893 801.935 801.893 809.104C801.893 816.273 796.081 822.085 788.913 822.085H237.972C230.803 822.085 224.992 816.273 224.992 809.104Z" fill="#132431"/>
<path d="M285.566 863.91C285.566 856.741 291.378 850.93 298.546 850.93H725.454C732.622 850.93 738.434 856.741 738.434 863.91C738.434 871.079 732.622 876.89 725.454 876.89H298.546C291.378 876.89 285.566 871.079 285.566 863.91Z" fill="#132431"/>
<path d="M340.372 918.716C340.372 911.547 346.183 905.735 353.352 905.735H670.648C677.817 905.735 683.628 911.547 683.628 918.716C683.628 925.884 677.817 931.696 670.648 931.696H353.352C346.183 931.696 340.372 925.884 340.372 918.716Z" fill="#132431"/>
<path d="M477.293 277.723L518.321 246.4L609.953 377.536L576.901 415.096L477.293 277.723Z" fill="url(#paint0_linear_45_63)"/>
<path d="M463.897 264.618L516.025 253.698L543.409 404.176L491.281 415.096L463.897 264.618Z" fill="white"/>
<path d="M337.971 396.751L378.999 365.428L442.416 455.529L424.342 506.843L337.971 396.751Z" fill="url(#paint1_linear_45_63)"/>
<path d="M324.576 383.646L376.703 372.726L404.088 523.204L351.96 534.124L324.576 383.646Z" fill="white"/>
<path d="M590.467 392.654L629.439 362.419L873.505 677.011L834.533 707.246L590.467 392.654Z" fill="url(#paint2_linear_45_63)"/>
<path d="M576.901 381.042L627.458 369.217L659.649 506.843L609.092 518.668L576.901 381.042Z" fill="white"/>
<path d="M378.348 320.908L141.341 629.308L170.967 672.009L378.348 381.402L426.935 445.454H389.013L178.839 738.434H283.545L469.596 432.406L442.416 399.194L521.738 284.137L572.694 351.748H534.773L507.517 389.705L532.403 440.71L347.537 738.434H863.028L649.721 464.433L629.576 492.9L592.84 440.71L629.576 381.402L868.953 685.07L885.544 648.286L629.576 329.211L616.54 351.748L515.812 230.761L415.236 365.982L378.348 320.908Z" fill="#132431"/>
<path d="M556.71 118.265C556.71 142.161 537.338 161.532 513.442 161.532C489.546 161.532 470.175 142.161 470.175 118.265C470.175 94.3688 489.546 74.9972 513.442 74.9972C537.338 74.9972 556.71 94.3688 556.71 118.265Z" fill="#132431"/>
<defs>
<linearGradient id="paint0_linear_45_63" x1="512" y1="0" x2="512" y2="1024" gradientUnits="userSpaceOnUse">
<stop offset="0.0378723" stop-color="#122432"/>
<stop offset="1" stop-color="#D1D2D6" stop-opacity="0.5"/>
<stop offset="1.0001" stop-color="#122432" stop-opacity="0.3"/>
</linearGradient>
<linearGradient id="paint1_linear_45_63" x1="512" y1="0" x2="512" y2="1024" gradientUnits="userSpaceOnUse">
<stop offset="0.0378723" stop-color="#122432"/>
<stop offset="1" stop-color="#D1D2D6" stop-opacity="0.5"/>
<stop offset="1.0001" stop-color="#122432" stop-opacity="0.3"/>
</linearGradient>
<linearGradient id="paint2_linear_45_63" x1="512" y1="0" x2="512" y2="1024" gradientUnits="userSpaceOnUse">
<stop offset="0.0378723" stop-color="#122432"/>
<stop offset="1" stop-color="#D1D2D6" stop-opacity="0.5"/>
<stop offset="1.0001" stop-color="#122432" stop-opacity="0.3"/>
</linearGradient>
</defs>
</svg>
