<svg viewBox="0 0 361 117" fill="none" xmlns="http://www.w3.org/2000/svg">
<path d="M117 58.5C117 90.8087 90.8087 117 58.5 117C26.1913 117 0 90.8087 0 58.5C0 26.1913 26.1913 0 58.5 0C90.8087 0 117 26.1913 117 58.5Z" fill="white"/>
<path d="M25.707 92.4465C25.707 91.6274 26.371 90.9634 27.1901 90.9634H90.1394C90.9585 90.9634 91.6225 91.6274 91.6225 92.4465C91.6225 93.2656 90.9585 93.9296 90.1394 93.9296H27.1901C26.371 93.9296 25.707 93.2656 25.707 92.4465Z" fill="#132431"/>
<path d="M32.6282 98.7085C32.6282 97.8894 33.2922 97.2253 34.1113 97.2253H82.8887C83.7078 97.2253 84.3718 97.8894 84.3718 98.7085C84.3718 99.5275 83.7078 100.192 82.8887 100.192H34.1113C33.2922 100.192 32.6282 99.5275 32.6282 98.7085Z" fill="#132431"/>
<path d="M38.8901 104.97C38.8901 104.151 39.5541 103.487 40.3732 103.487H76.6268C77.4459 103.487 78.1099 104.151 78.1099 104.97C78.1099 105.79 77.4459 106.454 76.6268 106.454H40.3732C39.5541 106.454 38.8901 105.79 38.8901 104.97Z" fill="#132431"/>
<path d="M54.5345 31.7321L59.2222 28.1531L69.6919 43.1365L65.9155 47.428L54.5345 31.7321Z" fill="url(#paint0_linear_51_65)"/>
<path d="M53.0039 30.2347L58.9598 28.987L62.0887 46.1803L56.1327 47.428L53.0039 30.2347Z" fill="white"/>
<path d="M38.6158 45.3319L43.3036 41.753L50.5495 52.0478L48.4844 57.9108L38.6158 45.3319Z" fill="url(#paint1_linear_51_65)"/>
<path d="M37.0854 43.8345L43.0413 42.5869L46.1702 59.7801L40.2142 61.0278L37.0854 43.8345Z" fill="white"/>
<path d="M67.4655 44.8638L71.9183 41.4092L99.8048 77.3538L95.3519 80.8084L67.4655 44.8638Z" fill="url(#paint2_linear_51_65)"/>
<path d="M65.9155 43.537L71.692 42.1859L75.37 57.9108L69.5935 59.2619L65.9155 43.537Z" fill="white"/>
<path d="M43.2292 36.6663L16.1493 71.9033L19.5343 76.7823L43.2292 43.5782L48.7806 50.8966H44.4478L20.4338 84.3718H32.3973L53.655 49.4058L50.5495 45.6111L59.6126 32.4649L65.4348 40.19H61.102L57.9878 44.5268L60.8312 50.3545L39.7088 84.3718H98.6077L74.2357 53.0651L71.934 56.3177L67.7366 50.3545L71.934 43.5782L99.2847 78.2747L101.18 74.0718L71.934 37.615L70.4446 40.19L58.9356 26.3662L47.4439 41.8163L43.2292 36.6663Z" fill="#132431"/>
<path d="M63.6085 13.5127C63.6085 16.243 61.3951 18.4563 58.6648 18.4563C55.9345 18.4563 53.7211 16.243 53.7211 13.5127C53.7211 10.7824 55.9345 8.56901 58.6648 8.56901C61.3951 8.56901 63.6085 10.7824 63.6085 13.5127Z" fill="#132431"/>
<path d="M148.299 30.6H159.099V57.4H171.049V65H148.299V30.6ZM191.024 65.8C187.424 65.8 184.224 65.0333 181.424 63.5C178.658 61.9667 176.491 59.85 174.924 57.15C173.391 54.4167 172.624 51.3167 172.624 47.85C172.624 44.35 173.391 41.2333 174.924 38.5C176.491 35.7667 178.658 33.65 181.424 32.15C184.224 30.6167 187.424 29.85 191.024 29.85C194.624 29.85 197.808 30.6167 200.574 32.15C203.374 33.65 205.541 35.7667 207.074 38.5C208.641 41.2 209.424 44.3167 209.424 47.85C209.424 51.3167 208.641 54.4167 207.074 57.15C205.541 59.85 203.374 61.9667 200.574 63.5C197.774 65.0333 194.591 65.8 191.024 65.8ZM191.024 56.7C193.124 56.7 194.841 55.8833 196.174 54.25C197.541 52.6167 198.224 50.4667 198.224 47.8C198.224 46.0333 197.908 44.4667 197.274 43.1C196.674 41.7 195.824 40.6167 194.724 39.85C193.624 39.05 192.374 38.65 190.974 38.65C189.608 38.65 188.374 39.05 187.274 39.85C186.174 40.6167 185.324 41.7 184.724 43.1C184.124 44.4667 183.824 46.0333 183.824 47.8C183.824 50.4667 184.491 52.6167 185.824 54.25C187.158 55.8833 188.891 56.7 191.024 56.7ZM214.217 30.6H238.367V38.2H226.367V44.45H237.317V50.75H226.367V57.4H238.367V65H214.217V30.6ZM241.753 30.6H253.003L256.253 52.55L259.603 36.45H271.253L274.653 52.55L277.903 30.6H289.153L281.353 65H269.703L265.453 46.5L261.203 65H249.553L241.753 30.6ZM293.465 30.6H317.615V38.2H305.615V44.45H316.565V50.75H305.615V57.4H317.615V65H293.465V30.6Z" fill="white"/>
<path d="M150.894 101.32C149.014 101.32 147.427 100.973 146.134 100.28L147.134 97.18C148.507 97.6733 149.734 97.92 150.814 97.92C151.401 97.92 151.827 97.8533 152.094 97.72C152.374 97.5733 152.514 97.36 152.514 97.08C152.514 96.8933 152.441 96.7333 152.294 96.6C152.147 96.4533 151.854 96.2933 151.414 96.12C150.974 95.9467 150.314 95.7333 149.434 95.48C148.354 95.16 147.514 94.64 146.914 93.92C146.314 93.1867 146.014 92.3467 146.014 91.4C146.014 89.9333 146.494 88.8267 147.454 88.08C148.427 87.32 149.734 86.94 151.374 86.94C152.227 86.94 153.067 87.0333 153.894 87.22C154.721 87.3933 155.454 87.6533 156.094 88L155.014 91.02C154.267 90.7667 153.614 90.5867 153.054 90.48C152.507 90.36 151.974 90.3 151.454 90.3C150.574 90.3 150.134 90.54 150.134 91.02C150.134 91.26 150.274 91.4667 150.554 91.64C150.847 91.8 151.441 92.0067 152.334 92.26C153.734 92.6333 154.794 93.2067 155.514 93.98C156.234 94.74 156.594 95.6533 156.594 96.72C156.594 98.2 156.114 99.34 155.154 100.14C154.194 100.927 152.774 101.32 150.894 101.32ZM163.43 101.16C162.31 101.16 161.31 100.94 160.43 100.5C159.563 100.06 158.883 99.4533 158.39 98.68C157.91 97.8933 157.67 96.9933 157.67 95.98C157.67 94.9667 157.917 94.0733 158.41 93.3C158.903 92.5133 159.583 91.9067 160.45 91.48C161.33 91.0533 162.33 90.84 163.45 90.84C164.583 90.84 165.583 91.06 166.45 91.5C167.33 91.9267 168.01 92.5267 168.49 93.3C168.97 94.0733 169.21 94.9667 169.21 95.98C169.21 97.0067 168.963 97.9133 168.47 98.7C167.99 99.4733 167.31 100.08 166.43 100.52C165.563 100.947 164.563 101.16 163.43 101.16ZM163.47 98.16C164.017 98.16 164.463 97.96 164.81 97.56C165.17 97.1467 165.35 96.62 165.35 95.98C165.35 95.34 165.17 94.82 164.81 94.42C164.463 94.0067 164.017 93.8 163.47 93.8C162.923 93.8 162.47 94.0067 162.11 94.42C161.763 94.82 161.59 95.34 161.59 95.98C161.59 96.62 161.763 97.1467 162.11 97.56C162.47 97.96 162.923 98.16 163.47 98.16ZM174.229 101.16C173.096 101.16 172.216 100.807 171.589 100.1C170.976 99.38 170.669 98.4 170.669 97.16V87.82L174.889 87.2V96.86C174.889 97.2333 174.976 97.5067 175.149 97.68C175.336 97.84 175.656 97.92 176.109 97.92C176.442 97.92 176.769 97.84 177.089 97.68L177.229 100.48C176.336 100.933 175.336 101.16 174.229 101.16ZM183.588 101.16C182.534 101.16 181.594 100.973 180.768 100.6C179.954 100.227 179.321 99.7 178.868 99.02C178.414 98.34 178.188 97.5667 178.188 96.7V90.98H182.308V96.64C182.308 97.08 182.428 97.4267 182.668 97.68C182.921 97.92 183.234 98.04 183.608 98.04C183.968 98.04 184.261 97.92 184.488 97.68C184.728 97.4267 184.848 97.08 184.848 96.64V90.98H188.888V96.7C188.888 97.58 188.661 98.36 188.208 99.04C187.768 99.7067 187.148 100.227 186.348 100.6C185.548 100.973 184.628 101.16 183.588 101.16ZM198.786 100.52C198.333 100.747 197.873 100.907 197.406 101C196.953 101.107 196.433 101.16 195.846 101.16L195.606 101.9C196.233 102.06 196.686 102.293 196.966 102.6C197.26 102.92 197.406 103.32 197.406 103.8C197.406 104.453 197.16 104.973 196.666 105.36C196.173 105.76 195.506 105.96 194.666 105.96C193.973 105.96 193.366 105.84 192.846 105.6L192.866 104.46C193.186 104.567 193.5 104.62 193.806 104.62C194.166 104.62 194.446 104.54 194.646 104.38C194.846 104.22 194.946 103.987 194.946 103.68C194.946 103.427 194.84 103.22 194.626 103.06C194.413 102.9 194.133 102.793 193.786 102.74L194.366 101.02C193.14 100.753 192.16 100.173 191.426 99.28C190.693 98.3733 190.326 97.28 190.326 96C190.326 95.04 190.566 94.1667 191.046 93.38C191.526 92.5933 192.18 91.9733 193.006 91.52C193.833 91.0667 194.753 90.84 195.766 90.84C197.06 90.84 198.08 91.1067 198.826 91.64L198.446 94.3C197.686 94.0733 197.06 93.96 196.566 93.96C195.926 93.96 195.42 94.1467 195.046 94.52C194.673 94.88 194.486 95.3733 194.486 96C194.486 96.6267 194.673 97.1267 195.046 97.5C195.42 97.8733 195.913 98.06 196.526 98.06C197.06 98.06 197.686 97.9467 198.406 97.72L198.786 100.52ZM205.403 101.16C204.283 101.16 203.283 100.94 202.403 100.5C201.536 100.06 200.856 99.4533 200.363 98.68C199.883 97.8933 199.643 96.9933 199.643 95.98C199.643 94.9667 199.889 94.0733 200.383 93.3C200.876 92.5133 201.556 91.9067 202.423 91.48C203.303 91.0533 204.303 90.84 205.423 90.84C206.556 90.84 207.556 91.06 208.423 91.5C209.303 91.9267 209.983 92.5267 210.463 93.3C210.943 94.0733 211.183 94.9667 211.183 95.98C211.183 97.0067 210.936 97.9133 210.443 98.7C209.963 99.4733 209.283 100.08 208.403 100.52C207.536 100.947 206.536 101.16 205.403 101.16ZM205.443 98.16C205.989 98.16 206.436 97.96 206.783 97.56C207.143 97.1467 207.323 96.62 207.323 95.98C207.323 95.34 207.143 94.82 206.783 94.42C206.436 94.0067 205.989 93.8 205.443 93.8C204.896 93.8 204.443 94.0067 204.083 94.42C203.736 94.82 203.563 95.34 203.563 95.98C203.563 96.62 203.736 97.1467 204.083 97.56C204.443 97.96 204.896 98.16 205.443 98.16ZM200.563 88.48C200.936 87.44 201.416 86.66 202.003 86.14C202.603 85.6067 203.269 85.34 204.003 85.34C204.283 85.34 204.543 85.3867 204.783 85.48C205.023 85.56 205.296 85.6867 205.603 85.86C205.883 86.0067 206.116 86.12 206.303 86.2C206.503 86.2667 206.709 86.3 206.923 86.3C207.123 86.3 207.309 86.22 207.483 86.06C207.669 85.9 207.876 85.6533 208.103 85.32L210.263 86.26C209.889 87.3 209.403 88.0867 208.803 88.62C208.216 89.1533 207.556 89.42 206.823 89.42C206.543 89.42 206.283 89.38 206.043 89.3C205.803 89.2067 205.529 89.0733 205.223 88.9C204.943 88.7533 204.703 88.6467 204.503 88.58C204.316 88.5 204.116 88.46 203.903 88.46C203.703 88.46 203.509 88.54 203.323 88.7C203.149 88.86 202.949 89.1067 202.723 89.44L200.563 88.48ZM217.862 101.16C216.755 101.16 215.768 100.94 214.902 100.5C214.048 100.047 213.382 99.4333 212.902 98.66C212.422 97.8733 212.182 96.9867 212.182 96C212.182 94.9867 212.428 94.0867 212.922 93.3C213.415 92.5133 214.082 91.9067 214.922 91.48C215.762 91.0533 216.695 90.84 217.722 90.84C218.708 90.84 219.548 91.06 220.242 91.5C220.948 91.9267 221.475 92.5133 221.822 93.26C222.168 93.9933 222.342 94.82 222.342 95.74C222.342 95.98 222.328 96.1533 222.302 96.26L216.302 97.04C216.462 97.5067 216.722 97.8467 217.082 98.06C217.442 98.26 217.915 98.36 218.502 98.36C219.408 98.36 220.388 98.1267 221.442 97.66L221.942 100.34C220.702 100.887 219.342 101.16 217.862 101.16ZM219.242 94.52C219.028 93.68 218.522 93.26 217.722 93.26C217.242 93.26 216.862 93.44 216.582 93.8C216.302 94.16 216.155 94.6267 216.142 95.2L219.242 94.52ZM227.255 101.16C225.855 101.16 224.628 100.953 223.575 100.54L224.035 98.16C224.995 98.5067 225.928 98.68 226.835 98.68C227.502 98.68 227.835 98.4933 227.835 98.12C227.835 97.9333 227.735 97.78 227.535 97.66C227.348 97.54 226.988 97.4333 226.455 97.34C225.348 97.1267 224.548 96.7667 224.055 96.26C223.575 95.7533 223.335 95.0333 223.335 94.1C223.388 93.0467 223.808 92.24 224.595 91.68C225.382 91.12 226.455 90.84 227.815 90.84C228.508 90.84 229.102 90.8867 229.595 90.98C230.102 91.06 230.562 91.2 230.975 91.4L230.555 93.78C230.168 93.6333 229.742 93.52 229.275 93.44C228.822 93.36 228.442 93.32 228.135 93.32C227.682 93.32 227.368 93.3667 227.195 93.46C227.022 93.5533 226.935 93.68 226.935 93.84C226.935 94.1333 227.268 94.34 227.935 94.46C229.148 94.6733 230.055 95.0467 230.655 95.58C231.255 96.1133 231.555 96.84 231.555 97.76C231.555 98.8133 231.182 99.6467 230.435 100.26C229.702 100.86 228.642 101.16 227.255 101.16ZM241.944 101.16C240.837 101.16 239.85 100.94 238.984 100.5C238.13 100.047 237.464 99.4333 236.984 98.66C236.504 97.8733 236.264 96.9867 236.264 96C236.264 94.9867 236.51 94.0867 237.004 93.3C237.497 92.5133 238.164 91.9067 239.004 91.48C239.844 91.0533 240.777 90.84 241.804 90.84C242.79 90.84 243.63 91.06 244.324 91.5C245.03 91.9267 245.557 92.5133 245.904 93.26C246.25 93.9933 246.424 94.82 246.424 95.74C246.424 95.98 246.41 96.1533 246.384 96.26L240.384 97.04C240.544 97.5067 240.804 97.8467 241.164 98.06C241.524 98.26 241.997 98.36 242.584 98.36C243.49 98.36 244.47 98.1267 245.524 97.66L246.024 100.34C244.784 100.887 243.424 101.16 241.944 101.16ZM243.324 94.52C243.11 93.68 242.604 93.26 241.804 93.26C241.324 93.26 240.944 93.44 240.664 93.8C240.384 94.16 240.237 94.6267 240.224 95.2L243.324 94.52ZM247.877 91.12H251.897V93.16C252.35 92.3733 252.864 91.7933 253.437 91.42C254.024 91.0333 254.717 90.84 255.517 90.84C256.304 90.84 256.984 91.04 257.557 91.44C258.144 91.8267 258.584 92.3533 258.877 93.02C259.73 91.5667 260.97 90.84 262.597 90.84C263.37 90.84 264.044 91.0467 264.617 91.46C265.204 91.8733 265.657 92.4733 265.977 93.26C266.297 94.0333 266.457 94.9467 266.457 96V101H262.237V96C262.237 95.32 262.117 94.8067 261.877 94.46C261.65 94.1133 261.33 93.94 260.917 93.94C260.464 93.94 260.07 94.1333 259.737 94.52C259.417 94.9067 259.257 95.3733 259.257 95.92V101H255.077V96C255.077 95.32 254.957 94.8067 254.717 94.46C254.49 94.1133 254.164 93.94 253.737 93.94C253.284 93.94 252.897 94.1333 252.577 94.52C252.257 94.9067 252.097 95.3733 252.097 95.92V101H247.877V91.12ZM275.595 101.16C274.195 101.16 272.968 100.953 271.915 100.54L272.375 98.16C273.335 98.5067 274.268 98.68 275.175 98.68C275.841 98.68 276.175 98.4933 276.175 98.12C276.175 97.9333 276.075 97.78 275.875 97.66C275.688 97.54 275.328 97.4333 274.795 97.34C273.688 97.1267 272.888 96.7667 272.395 96.26C271.915 95.7533 271.675 95.0333 271.675 94.1C271.728 93.0467 272.148 92.24 272.935 91.68C273.721 91.12 274.795 90.84 276.155 90.84C276.848 90.84 277.441 90.8867 277.935 90.98C278.441 91.06 278.901 91.2 279.315 91.4L278.895 93.78C278.508 93.6333 278.081 93.52 277.615 93.44C277.161 93.36 276.781 93.32 276.475 93.32C276.021 93.32 275.708 93.3667 275.535 93.46C275.361 93.5533 275.275 93.68 275.275 93.84C275.275 94.1333 275.608 94.34 276.275 94.46C277.488 94.6733 278.395 95.0467 278.995 95.58C279.595 96.1133 279.895 96.84 279.895 97.76C279.895 98.8133 279.521 99.6467 278.775 100.26C278.041 100.86 276.981 101.16 275.595 101.16ZM286.633 101.16C285.513 101.16 284.513 100.94 283.633 100.5C282.766 100.06 282.086 99.4533 281.593 98.68C281.113 97.8933 280.873 96.9933 280.873 95.98C280.873 94.9667 281.12 94.0733 281.613 93.3C282.106 92.5133 282.786 91.9067 283.653 91.48C284.533 91.0533 285.533 90.84 286.653 90.84C287.786 90.84 288.786 91.06 289.653 91.5C290.533 91.9267 291.213 92.5267 291.693 93.3C292.173 94.0733 292.413 94.9667 292.413 95.98C292.413 97.0067 292.166 97.9133 291.673 98.7C291.193 99.4733 290.513 100.08 289.633 100.52C288.766 100.947 287.766 101.16 286.633 101.16ZM286.673 98.16C287.22 98.16 287.666 97.96 288.013 97.56C288.373 97.1467 288.553 96.62 288.553 95.98C288.553 95.34 288.373 94.82 288.013 94.42C287.666 94.0067 287.22 93.8 286.673 93.8C286.126 93.8 285.673 94.0067 285.313 94.42C284.966 94.82 284.793 95.34 284.793 95.98C284.793 96.62 284.966 97.1467 285.313 97.56C285.673 97.96 286.126 98.16 286.673 98.16ZM294.535 93.46H293.275V90.98H294.535V90.14C294.535 88.66 294.889 87.54 295.595 86.78C296.315 86.02 297.315 85.64 298.595 85.64C299.622 85.64 300.575 85.9 301.455 86.42L301.315 89.12C300.542 88.8133 299.895 88.66 299.375 88.66C298.975 88.66 298.669 88.76 298.455 88.96C298.242 89.1467 298.135 89.42 298.135 89.78C298.135 90.1267 298.249 90.5267 298.475 90.98H301.275V93.46H298.755V101H294.535V93.46ZM306.847 101.16C305.673 101.16 304.76 100.827 304.107 100.16C303.453 99.48 303.127 98.5467 303.127 97.36V93.46H301.847V90.98H303.427L305.287 87.2H307.307V90.98H309.627V93.46H307.307V96.86C307.307 97.1933 307.413 97.4533 307.627 97.64C307.84 97.8267 308.14 97.92 308.527 97.92C308.887 97.92 309.213 97.84 309.507 97.68L309.667 100.48C309.333 100.68 308.9 100.847 308.367 100.98C307.847 101.1 307.34 101.16 306.847 101.16ZM310.558 90.98H314.638L315.778 97.48L317.158 90.98H320.598L321.998 97.64L323.138 90.98H326.418L324.338 101H319.558L318.438 95.7L317.378 101H312.758L310.558 90.98ZM332.121 101.16C331.255 101.16 330.441 100.933 329.681 100.48C328.935 100.013 328.335 99.3867 327.881 98.6C327.428 97.8 327.201 96.9133 327.201 95.94C327.201 94.98 327.428 94.1133 327.881 93.34C328.335 92.5533 328.941 91.94 329.701 91.5C330.461 91.06 331.268 90.84 332.121 90.84C332.815 90.84 333.455 91.0333 334.041 91.42C334.641 91.8067 335.095 92.3867 335.401 93.16V90.84H339.601V101H335.401V99.14C334.735 100.487 333.641 101.16 332.121 101.16ZM333.421 98C333.955 98 334.408 97.8133 334.781 97.44C335.168 97.0533 335.375 96.6 335.401 96.08V95.92C335.375 95.3867 335.161 94.9333 334.761 94.56C334.375 94.1867 333.928 94 333.421 94C332.861 94 332.381 94.2 331.981 94.6C331.595 94.9867 331.401 95.4533 331.401 96C331.401 96.56 331.601 97.0333 332.001 97.42C332.401 97.8067 332.875 98 333.421 98ZM341.627 91.12H345.847V93.16C346.154 92.3733 346.567 91.7933 347.087 91.42C347.62 91.0333 348.24 90.84 348.947 90.84L349.527 94.1C348.26 94.1 347.327 94.24 346.727 94.52C346.14 94.7867 345.847 95.2133 345.847 95.8V101H341.627V91.12ZM355.733 101.16C354.626 101.16 353.639 100.94 352.773 100.5C351.919 100.047 351.253 99.4333 350.773 98.66C350.293 97.8733 350.053 96.9867 350.053 96C350.053 94.9867 350.299 94.0867 350.793 93.3C351.286 92.5133 351.953 91.9067 352.793 91.48C353.633 91.0533 354.566 90.84 355.593 90.84C356.579 90.84 357.419 91.06 358.113 91.5C358.819 91.9267 359.346 92.5133 359.693 93.26C360.039 93.9933 360.213 94.82 360.213 95.74C360.213 95.98 360.199 96.1533 360.173 96.26L354.173 97.04C354.333 97.5067 354.593 97.8467 354.953 98.06C355.313 98.26 355.786 98.36 356.373 98.36C357.279 98.36 358.259 98.1267 359.313 97.66L359.813 100.34C358.573 100.887 357.213 101.16 355.733 101.16ZM357.113 94.52C356.899 93.68 356.393 93.26 355.593 93.26C355.113 93.26 354.733 93.44 354.453 93.8C354.173 94.16 354.026 94.6267 354.013 95.2L357.113 94.52Z" fill="white"/>
<defs>
<linearGradient id="paint0_linear_51_65" x1="58.5" y1="0" x2="58.5" y2="117" gradientUnits="userSpaceOnUse">
<stop offset="0.0378723" stop-color="#122432"/>
<stop offset="1" stop-color="#D1D2D6" stop-opacity="0.5"/>
<stop offset="1.0001" stop-color="#122432" stop-opacity="0.3"/>
</linearGradient>
<linearGradient id="paint1_linear_51_65" x1="58.5" y1="0" x2="58.5" y2="117" gradientUnits="userSpaceOnUse">
<stop offset="0.0378723" stop-color="#122432"/>
<stop offset="1" stop-color="#D1D2D6" stop-opacity="0.5"/>
<stop offset="1.0001" stop-color="#122432" stop-opacity="0.3"/>
</linearGradient>
<linearGradient id="paint2_linear_51_65" x1="58.5" y1="0" x2="58.5" y2="117" gradientUnits="userSpaceOnUse">
<stop offset="0.0378723" stop-color="#122432"/>
<stop offset="1" stop-color="#D1D2D6" stop-opacity="0.5"/>
<stop offset="1.0001" stop-color="#122432" stop-opacity="0.3"/>
</linearGradient>
</defs>
</svg>
