<?xml version="1.0" standalone="no"?>
<!DOCTYPE svg PUBLIC "-//W3C//DTD SVG 20010904//EN"
 "http://www.w3.org/TR/2001/REC-SVG-20010904/DTD/svg10.dtd">
<svg version="1.0" xmlns="http://www.w3.org/2000/svg"
 width="1024.000000pt" height="1024.000000pt" viewBox="0 0 1024.000000 1024.000000"
 preserveAspectRatio="xMidYMid meet">
<metadata>
Created by potrace 1.14, written by Peter Selinger 2001-2017
</metadata>
<g transform="translate(0.000000,1024.000000) scale(0.100000,-0.100000)"
fill="#000000" stroke="none">
<path d="M5037 9479 c-214 -50 -364 -271 -329 -483 23 -142 116 -268 241 -328
57 -28 80 -33 163 -36 147 -6 240 30 337 133 124 131 151 312 72 481 -83 177
-293 278 -484 233z"/>
<path d="M4905 7592 c-137 -186 -363 -489 -501 -675 l-252 -337 -183 224
c-139 171 -187 222 -195 213 -19 -21 -2330 -3031 -2344 -3053 -12 -19 -1 -39
130 -228 79 -114 147 -205 151 -204 8 3 2036 2839 2059 2878 5 8 11 13 13 10
3 -3 31 -143 62 -313 l56 -307 -1050 -1465 c-578 -805 -1051 -1466 -1051
-1470 0 -3 233 -5 519 -5 l519 0 927 1525 c510 839 925 1531 922 1538 -3 6
-62 81 -131 164 -69 84 -126 157 -126 162 0 4 97 150 216 322 584 847 567 823
574 803 4 -10 33 -163 65 -340 l58 -320 -132 -182 c-72 -101 -131 -186 -131
-191 0 -5 54 -118 120 -252 66 -134 120 -248 120 -254 0 -5 -414 -676 -919
-1490 l-919 -1480 1284 -3 c706 -1 1863 -1 2570 0 l1286 3 -143 185 c-79 102
-407 525 -729 940 -322 415 -711 916 -864 1113 -152 197 -279 368 -281 379 -4
17 -2 19 7 10 14 -14 32 -16 24 -3 -7 10 20 9 30 -2 4 -4 18 -4 30 -1 15 4 24
2 24 -5 0 -8 5 -9 19 -1 27 14 61 13 61 -2 0 -9 3 -9 11 -1 8 8 19 9 37 2 19
-7 29 -6 43 7 11 10 19 13 19 8 0 -5 15 -9 33 -9 17 0 38 -4 45 -9 7 -5 12 -5
12 1 0 37 62 -32 307 -341 152 -193 350 -443 440 -556 89 -113 335 -423 545
-689 211 -267 388 -486 393 -488 11 -3 169 341 163 356 -5 16 -2542 3180
-2549 3180 -4 1 -34 -46 -68 -104 -34 -58 -65 -105 -69 -105 -4 1 -225 264
-492 586 -267 322 -492 591 -500 599 -13 11 -48 -31 -265 -323z m1439 -1328
c19 -77 61 -257 96 -401 l62 -262 -103 -145 c-57 -80 -104 -145 -105 -143 -1
1 -83 118 -183 260 l-182 259 22 36 c123 210 343 552 351 544 5 -5 24 -72 42
-148z"/>
<path d="M2321 2262 c-65 -35 -89 -118 -51 -179 41 -69 -214 -63 2867 -63
2779 0 2788 0 2821 20 34 21 62 72 62 112 0 37 -34 90 -71 110 -32 17 -140 18
-2814 18 -2674 0 -2782 -1 -2814 -18z"/>
<path d="M2924 1711 c-46 -28 -64 -59 -64 -112 0 -32 7 -55 21 -73 47 -60
-121 -56 2239 -56 2360 0 2192 -4 2239 56 15 19 21 41 21 75 0 42 -5 55 -34
87 l-34 37 -2179 3 c-2130 2 -2179 2 -2209 -17z"/>
<path d="M3469 1165 c-39 -21 -62 -63 -62 -113 0 -51 24 -89 74 -114 32 -17
131 -18 1636 -18 1110 0 1610 3 1630 11 42 16 72 48 84 91 8 32 6 46 -10 82
-36 83 119 76 -1703 76 -1381 -1 -1627 -3 -1649 -15z"/>
</g>
</svg>
