<svg viewBox="0 0 70 70" fill="none" xmlns="http://www.w3.org/2000/svg">
<path d="M70 35C70 54.33 54.33 70 35 70C15.67 70 0 54.33 0 35C0 15.67 15.67 0 35 0C54.33 0 70 15.67 70 35Z" fill="white"/>
<path d="M15.3803 55.3099C15.3803 54.8198 15.7776 54.4225 16.2676 54.4225H53.9296C54.4196 54.4225 54.8169 54.8198 54.8169 55.3099C54.8169 55.7999 54.4196 56.1972 53.9296 56.1972H16.2676C15.7775 56.1972 15.3803 55.7999 15.3803 55.3099Z" fill="#132431"/>
<path d="M19.5211 59.0563C19.5211 58.5663 19.9184 58.169 20.4085 58.169H49.5916C50.0816 58.169 50.4789 58.5663 50.4789 59.0563C50.4789 59.5464 50.0816 59.9437 49.5916 59.9437H20.4085C19.9184 59.9437 19.5211 59.5464 19.5211 59.0563Z" fill="#132431"/>
<path d="M23.2676 62.8028C23.2676 62.3128 23.6649 61.9155 24.1549 61.9155H45.8451C46.3351 61.9155 46.7324 62.3128 46.7324 62.8028C46.7324 63.2929 46.3351 63.6901 45.8451 63.6901H24.1549C23.6649 63.6901 23.2676 63.2929 23.2676 62.8028Z" fill="#132431"/>
<path d="M32.6274 18.985L35.4321 16.8438L41.696 25.8082L39.4366 28.3757L32.6274 18.985Z" fill="url(#paint0_linear_22_10931)"/>
<path d="M31.7117 18.0891L35.2751 17.3427L37.1471 27.6292L33.5837 28.3757L31.7117 18.0891Z" fill="white"/>
<path d="M23.1035 27.1217L25.9081 24.9804L30.2433 31.1397L29.0077 34.6475L23.1035 27.1217Z" fill="url(#paint1_linear_22_10931)"/>
<path d="M22.1878 26.2258L25.7512 25.4793L27.6232 35.7659L24.0598 36.5124L22.1878 26.2258Z" fill="white"/>
<path d="M40.364 26.8416L43.028 24.7747L59.7123 46.28L57.0482 48.3469L40.364 26.8416Z" fill="url(#paint2_linear_22_10931)"/>
<path d="M39.4366 26.0478L42.8926 25.2394L45.0932 34.6475L41.6372 35.4558L39.4366 26.0478Z" fill="white"/>
<path d="M25.8636 21.9371L9.66197 43.0191L11.6872 45.9381L25.8636 26.0724L29.185 30.451H26.5927L12.2254 50.4789H19.383L32.1013 29.559L30.2433 27.2887L35.6657 19.4235L39.149 24.0453H36.5567L34.6936 26.64L36.3947 30.1266L23.7574 50.4789H58.9961L44.4146 31.7483L43.0374 33.6944L40.5262 30.1266L43.0374 26.0724L59.4011 46.831L60.5352 44.3164L43.0374 22.5047L42.1463 24.0453L35.2606 15.7746L28.3852 25.0183L25.8636 21.9371Z" fill="#132431"/>
<path d="M38.0563 8.08451C38.0563 9.71803 36.7321 11.0423 35.0986 11.0423C33.4651 11.0423 32.1408 9.71803 32.1408 8.08451C32.1408 6.45099 33.4651 5.12676 35.0986 5.12676C36.7321 5.12676 38.0563 6.45099 38.0563 8.08451Z" fill="#132431"/>
<defs>
<linearGradient id="paint0_linear_22_10931" x1="35" y1="0" x2="35" y2="70" gradientUnits="userSpaceOnUse">
<stop offset="0.0378723" stop-color="#122432"/>
<stop offset="1" stop-color="#D1D2D6" stop-opacity="0.5"/>
<stop offset="1.0001" stop-color="#122432" stop-opacity="0.3"/>
</linearGradient>
<linearGradient id="paint1_linear_22_10931" x1="35" y1="0" x2="35" y2="70" gradientUnits="userSpaceOnUse">
<stop offset="0.0378723" stop-color="#122432"/>
<stop offset="1" stop-color="#D1D2D6" stop-opacity="0.5"/>
<stop offset="1.0001" stop-color="#122432" stop-opacity="0.3"/>
</linearGradient>
<linearGradient id="paint2_linear_22_10931" x1="35" y1="0" x2="35" y2="70" gradientUnits="userSpaceOnUse">
<stop offset="0.0378723" stop-color="#122432"/>
<stop offset="1" stop-color="#D1D2D6" stop-opacity="0.5"/>
<stop offset="1.0001" stop-color="#122432" stop-opacity="0.3"/>
</linearGradient>
</defs>
</svg>
